<svg xmlns="http://www.w3.org/2000/svg" width="74" height="64" viewBox="0 0 74 64" fill="none">
<path d="M63.251 24.125C66.0347 24.1215 68.7034 23.0142 70.6718 21.0458C72.6401 19.0774 73.7475 16.4087 73.751 13.625V5.75H65.876C63.1883 5.75397 60.6057 6.79381 58.6651 8.65325C57.3052 6.18582 55.3088 4.12801 52.8837 2.69407C50.4585 1.26013 47.6933 0.502483 44.876 0.5H37.001V8.375C37.0058 12.5507 38.6668 16.5539 41.6194 19.5066C44.5721 22.4592 48.5753 24.1201 52.751 24.125H55.376V58.25H23.876V45.125H26.501C29.2847 45.1215 31.9534 44.0142 33.9218 42.0458C35.8901 40.0774 36.9975 37.4087 37.001 34.625V26.75H29.126C26.4383 26.754 23.8557 27.7938 21.9151 29.6532C20.5552 27.1858 18.5588 25.128 16.1337 23.6941C13.7085 22.2601 10.9433 21.5025 8.12598 21.5H0.250977V29.375C0.25584 33.5507 1.91677 37.5539 4.86942 40.5066C7.82206 43.4592 11.8253 45.1201 16.001 45.125H18.626V58.25H0.250977V63.5H73.751V58.25H60.626V24.125H63.251ZM60.626 16.25C60.6274 14.858 61.1809 13.5235 62.1652 12.5392C63.1495 11.555 64.484 11.0014 65.876 11H68.501V13.625C68.4996 15.017 67.946 16.3515 66.9618 17.3358C65.9775 18.32 64.6429 18.8736 63.251 18.875H60.626V16.25ZM23.876 37.25C23.8774 35.858 24.4309 34.5235 25.4152 33.5392C26.3995 32.555 27.734 32.0014 29.126 32H31.751V34.625C31.7496 36.017 31.196 37.3515 30.2118 38.3358C29.2275 39.32 27.8929 39.8736 26.501 39.875H23.876V37.25ZM18.626 39.875H16.001C13.2173 39.8715 10.5486 38.7642 8.58019 36.7958C6.61181 34.8274 5.50445 32.1587 5.50098 29.375V26.75H8.12598C10.9097 26.7535 13.5784 27.8608 15.5468 29.8292C17.5151 31.7976 18.6225 34.4663 18.626 37.25V39.875ZM55.376 18.875H52.751C49.9673 18.8715 47.2986 17.7642 45.3302 15.7958C43.3618 13.8274 42.2544 11.1587 42.251 8.375V5.75H44.876C47.6597 5.75347 50.3284 6.86084 52.2968 8.82922C54.2651 10.7976 55.3725 13.4663 55.376 16.25V18.875Z" fill="white"/>
</svg>